<svg width="16" height="16" viewBox="0 0 16 16" fill="none" xmlns="http://www.w3.org/2000/svg">
<g clip-path="url(#clip0_1780_16297)">
<path d="M12.9037 14.0961L14.596 11.5577L11.6344 8.59618L9.94215 9.44233C9.37805 9.16028 8.50802 8.85434 7.8268 8.17313C7.14556 7.4919 6.8396 6.62183 6.55755 6.05773L7.4037 4.36543L4.44215 1.40388L1.90373 3.09621C2.32681 4.64748 3.76529 7.49621 6.1345 9.86543C8.50372 12.2346 11.3524 13.6731 12.9037 14.0961Z" fill="#B9E3FF"/>
<path fill-rule="evenodd" clip-rule="evenodd" d="M13.3197 14.3735C13.2003 14.5526 12.9798 14.6352 12.7721 14.5785C11.1325 14.1314 8.20836 12.6464 5.78097 10.219C3.35359 7.7916 1.86856 4.86746 1.42137 3.22777C1.36475 3.02014 1.44734 2.79957 1.6264 2.68019L4.16482 0.987871C4.36314 0.85566 4.6272 0.881806 4.79573 1.05034L7.75728 4.01189C7.90946 4.16407 7.94719 4.39655 7.85094 4.58905L7.11456 6.06181C7.14529 6.1274 7.17587 6.19378 7.20669 6.26071C7.44873 6.78625 7.70629 7.3455 8.18038 7.81958C8.65444 8.29364 9.21365 8.55118 9.73918 8.79321C9.80612 8.82404 9.87251 8.85461 9.9381 8.88535L11.4109 8.14897C11.6034 8.05273 11.8358 8.09045 11.988 8.24263L14.9495 11.2042C15.1181 11.3727 15.1442 11.6367 15.012 11.8351L13.3197 14.3735ZM13.9526 11.6214L11.5357 9.20457L10.1658 9.88955C10.025 9.95993 9.85933 9.95993 9.71857 9.88955C9.62666 9.8436 9.51723 9.7937 9.3951 9.73801C8.86273 9.49524 8.08902 9.14243 7.47327 8.52669C6.8575 7.91093 6.50467 7.13718 6.2619 6.60479C6.20621 6.48267 6.15632 6.37325 6.11036 6.28134C6.03998 6.14058 6.03998 5.97489 6.11036 5.83413L6.79535 4.46417L4.37847 2.04729L2.48975 3.30647C2.99392 4.83128 4.3463 7.3701 6.48808 9.51188C8.62986 11.6537 11.1686 13.006 12.6934 13.5102L13.9526 11.6214Z" fill="#1667C0"/>
</g>
<defs>
<clipPath id="clip0_1780_16297">
<rect width="16" height="16" fill="white"/>
</clipPath>
</defs>
</svg>
